<svg width="48" height="24" viewBox="0 0 48 24" fill="none" xmlns="http://www.w3.org/2000/svg">
<g clip-path="url(#clip0_2857_1264)">
<path d="M17.625 22.625C23.493 22.625 28.25 17.868 28.25 12C28.25 6.13197 23.493 1.375 17.625 1.375C11.757 1.375 7 6.13197 7 12C7 17.868 11.757 22.625 17.625 22.625Z" fill="#F93232"/>
<path d="M30.375 1.375C27.9886 1.375 25.7935 2.17188 24.0213 3.5H24V3.51487C23.5793 3.8315 23.1925 4.1885 22.8238 4.5625H25.1762C25.5034 4.89506 25.8052 5.251 26.0846 5.625H21.9069C21.6494 5.96453 21.4127 6.31935 21.1982 6.6875H26.7912C26.9909 7.03175 27.179 7.38238 27.3416 7.75H20.6574C20.5047 8.09664 20.371 8.45133 20.2568 8.8125H27.7411C27.8516 9.15887 27.9387 9.51481 28.0152 9.875H19.9795C19.9083 10.2235 19.8488 10.5763 19.8127 10.9375H28.1863C28.2277 11.286 28.25 11.6398 28.25 12H19.75C19.75 12.3602 19.7787 12.7119 19.8138 13.0625H28.1884C28.148 13.4227 28.0896 13.7765 28.0163 14.125H19.9806C20.0539 14.4873 20.1484 14.8401 20.2579 15.1875H27.7421C27.628 15.5487 27.4942 15.9034 27.3416 16.25H20.6574C20.8178 16.6155 20.9984 16.9704 21.1982 17.3125H26.7912C26.5763 17.6809 26.3389 18.0358 26.0804 18.375H21.9069C22.1895 18.749 22.4944 19.1049 22.8228 19.4375H25.1762C24.8105 19.8152 24.4173 20.1653 24 20.4851C25.835 21.8742 28.0736 22.6256 30.375 22.625C36.2432 22.625 41 17.8671 41 12C41 6.13287 36.2432 1.375 30.375 1.375Z" fill="#FED049"/>
</g>
<defs>
<clipPath id="clip0_2857_1264">
<rect width="48" height="24" fill="white"/>
</clipPath>
</defs>
</svg>
