<svg width="48" height="24" viewBox="0 0 48 24" fill="none" xmlns="http://www.w3.org/2000/svg">
<g clip-path="url(#clip0_2857_1249)">
<g clip-path="url(#clip1_2857_1249)">
<path d="M17.5996 18.8954L20.0377 5.18115H23.8472L21.4853 18.8954H17.5996Z" fill="#3C58BF"/>
<path d="M17.5996 18.8954L20.7234 5.18115H23.8472L21.4853 18.8954H17.5996Z" fill="#293688"/>
<path d="M35.2763 5.33364C34.5144 5.02888 33.2953 4.72412 31.7715 4.72412C27.962 4.72412 25.2191 6.62888 25.2191 9.37174C25.2191 11.4289 27.1239 12.4955 28.6477 13.1813C30.1715 13.867 30.6287 14.3241 30.6287 14.9336C30.6287 15.8479 29.4096 16.3051 28.343 16.3051C26.8191 16.3051 25.981 16.0765 24.6858 15.5432L24.1525 15.3146L23.6191 18.4384C24.5334 18.8194 26.2096 19.2003 27.962 19.2003C32.0001 19.2003 34.6668 17.2956 34.6668 14.4003C34.6668 12.8003 33.6763 11.5813 31.3906 10.5908C30.0191 9.90507 29.181 9.52412 29.181 8.83841C29.181 8.22888 29.8668 7.61936 31.3906 7.61936C32.6858 7.61936 33.6001 7.84793 34.2858 8.15269L34.6668 8.30507L35.2763 5.33364Z" fill="#3C58BF"/>
<path d="M35.2763 5.33364C34.5144 5.02888 33.2953 4.72412 31.7715 4.72412C27.962 4.72412 25.9049 6.62888 25.9049 9.37174C25.9049 11.4289 27.1239 12.4955 28.6477 13.1813C30.1715 13.867 30.6287 14.3241 30.6287 14.9336C30.6287 15.8479 29.4096 16.3051 28.343 16.3051C26.8191 16.3051 25.981 16.0765 24.6858 15.5432L24.1525 15.3146L23.6191 18.4384C24.5334 18.8194 26.2096 19.2003 27.962 19.2003C32.0001 19.2003 34.6668 17.2956 34.6668 14.4003C34.6668 12.8003 33.6763 11.5813 31.3906 10.5908C30.0191 9.90507 29.181 9.52412 29.181 8.83841C29.181 8.22888 29.8668 7.61936 31.3906 7.61936C32.6858 7.61936 33.6001 7.84793 34.2858 8.15269L34.6668 8.30507L35.2763 5.33364Z" fill="#293688"/>
<path d="M41.8281 5.18115C40.9138 5.18115 40.2281 5.25734 39.8471 6.17163L34.1328 18.8954H38.2471L39.009 16.6097H43.8852L44.3423 18.8954H47.9995L44.7995 5.18115H41.8281ZM40.0757 14.324C40.3042 13.6383 41.5995 10.2859 41.5995 10.2859C41.5995 10.2859 41.9042 9.44782 42.1328 8.91449L42.3614 10.2097C42.3614 10.2097 43.1233 13.6383 43.2757 14.4002H40.0757V14.324Z" fill="#3C58BF"/>
<path d="M42.7423 5.18115C41.8281 5.18115 41.1423 5.25734 40.7614 6.17163L34.1328 18.8954H38.2471L39.009 16.6097H43.8852L44.3423 18.8954H47.9995L44.7995 5.18115H42.7423ZM40.0757 14.324C40.3804 13.5621 41.5995 10.2859 41.5995 10.2859C41.5995 10.2859 41.9042 9.44782 42.1328 8.91449L42.3614 10.2097C42.3614 10.2097 43.1233 13.6383 43.2757 14.4002H40.0757V14.324Z" fill="#293688"/>
<path d="M10.5912 14.7811L10.2103 12.8002C9.52457 10.5145 7.31505 8.00018 4.87695 6.78113L8.30552 18.9716H12.4198L18.5912 5.25732H14.477L10.5912 14.7811Z" fill="#3C58BF"/>
<path d="M10.5912 14.7811L10.2103 12.8002C9.52457 10.5145 7.31505 8.00018 4.87695 6.78113L8.30552 18.9716H12.4198L18.5912 5.25732H15.2389L10.5912 14.7811Z" fill="#293688"/>
<path d="M0 5.18115L0.685714 5.33353C5.56191 6.47639 8.91429 9.37163 10.2095 12.8002L8.8381 6.32401C8.60952 5.40972 7.92381 5.18115 7.08572 5.18115H0Z" fill="#FFBC00"/>
<path d="M0 5.18115C4.87619 6.32401 8.91429 9.29544 10.2095 12.724L8.91429 7.31449C8.68571 6.4002 7.92381 5.86687 7.08572 5.86687L0 5.18115Z" fill="#F7981D"/>
<path d="M0 5.18115C4.87619 6.32401 8.91429 9.29544 10.2095 12.724L9.29524 9.75258C9.06667 8.8383 8.76191 7.92401 7.69524 7.54306L0 5.18115Z" fill="#ED7C00"/>
<path d="M14.4007 14.3241L11.8103 11.7336L10.5912 14.6289L10.2865 12.7241C9.60074 10.4384 7.39122 7.92413 4.95312 6.70508L8.3817 18.8956H12.496L14.4007 14.3241ZM21.4865 18.8956L18.2103 15.5432L17.6007 18.8956H21.4865ZM30.2484 14.1717C30.5531 14.4765 30.7055 14.7051 30.6293 15.0098C30.6293 15.9241 29.4103 16.3813 28.3436 16.3813C26.8198 16.3813 25.9817 16.1527 24.6865 15.6194L24.1531 15.3908L23.6198 18.5146C24.5341 18.8956 26.2103 19.2765 27.9627 19.2765C30.4007 19.2765 32.3817 18.5908 33.5246 17.3717L30.2484 14.1717ZM34.6674 18.8956H38.2484L39.0103 16.6098H43.8865L44.3436 18.8956H48.0007L46.7055 13.3337L42.1341 8.9146L42.3627 10.1336C42.3627 10.1336 43.1246 13.5622 43.2769 14.3241H40.0769C40.3817 13.5622 41.6007 10.286 41.6007 10.286C41.6007 10.286 41.9055 9.44794 42.1341 8.9146" fill="#051244"/>
</g>
</g>
<defs>
<clipPath id="clip0_2857_1249">
<rect width="48" height="24" fill="white"/>
</clipPath>
<clipPath id="clip1_2857_1249">
<rect width="48" height="48" fill="white" transform="translate(0 -12)"/>
</clipPath>
</defs>
</svg>
